<svg width="512" height="512" viewBox="0 0 512 512" fill="none" xmlns="http://www.w3.org/2000/svg">
  <!-- רקע עיגול -->
  <circle cx="256" cy="256" r="256" fill="#4A90E2"/>
  
  <!-- סמל לב המייצג עזרה והתנדבות -->
  <path d="M256 370.8C250.2 370.8 244.6 368.9 240 365.3C180.4 312.4 143.2 269.8 121.6 238.4C94.4 198.7 85.3 162.9 85.3 131.2C85.3 83.2 123.7 44.8 171.7 44.8C200.5 44.8 227.7 59.7 246.4 84.1C250.2 89.1 255.9 89.1 259.7 84.1C278.4 59.7 305.6 44.8 334.4 44.8C382.4 44.8 420.8 83.2 420.8 131.2C420.8 162.9 411.7 198.7 384.5 238.4C362.9 269.8 325.7 312.4 272 365.3C267.4 368.9 261.8 370.8 256 370.8Z" fill="white"/>
  
  <!-- סמל מיקום -->
  <path d="M256 467.2C256 467.2 358.4 364.8 358.4 281.6C358.4 225.9 312.5 180 256.8 180C201.1 180 155.2 225.9 155.2 281.6C155.2 364.8 256 467.2 256 467.2ZM256.8 332.8C228.9 332.8 206.4 310.3 206.4 282.4C206.4 254.5 228.9 232 256.8 232C284.7 232 307.2 254.5 307.2 282.4C307.2 310.3 284.7 332.8 256.8 332.8Z" fill="#FFD700"/>
</svg> 